<svg xmlns="http://www.w3.org/2000/svg" width="256" height="256" viewBox="0 0 256 256">
<defs>
<filter id="s" x="-30%" y="-30%" width="160%" height="160%"><feDropShadow dx="0" dy="10" stdDeviation="10" flood-opacity=".22"/></filter>
<linearGradient id="g1" x1="0" y1="0" x2="1" y2="1"><stop offset="0" stop-color="#7c3aed"/><stop offset="1" stop-color="#2563eb"/></linearGradient>
<linearGradient id="g2" x1="0" y1="0" x2="1" y2="1"><stop offset="0" stop-color="#ff3d67"/><stop offset="1" stop-color="#ff8a00"/></linearGradient>
<linearGradient id="g3" x1="0" y1="0" x2="1" y2="1"><stop offset="0" stop-color="#06b6d4"/><stop offset="1" stop-color="#10b981"/></linearGradient>
</defs>
<g filter="url(#s)"><rect x="18" y="18" width="220" height="220" rx="28" fill="#ffffff"/><circle cx="128" cy="128" r="84" fill="#2563eb"/><path d="M96 170V110h22l12-34c4-11 19-8 19 4v28h31c9 0 15 8 13 17l-9 37c-2 8-9 14-18 14H96z" fill="#fff"/><rect x="64" y="112" width="26" height="58" rx="8" fill="#fff"/></g>
</svg>